<svg xmlns="http://www.w3.org/2000/svg" width="70" height="70" viewBox="0 0 70 70">
  <path id="Icon_metro-headphones" data-name="Icon metro-headphones" d="M22.258,41.3H17.883V71.928h4.375a2.194,2.194,0,0,0,2.188-2.187V43.491A2.194,2.194,0,0,0,22.258,41.3Zm30.625,0A2.194,2.194,0,0,0,50.7,43.491v26.25a2.194,2.194,0,0,0,2.188,2.188h4.375V41.3Zm19.687-4.375a35,35,0,1,0-67.9,11.952A15.316,15.316,0,0,0,15.7,71.772V41.46a15.219,15.219,0,0,0-6,2.213,28.436,28.436,0,1,1,55.749,0,15.223,15.223,0,0,0-6-2.216V71.772a15.316,15.316,0,0,0,11.03-22.89,34.932,34.932,0,0,0,2.1-11.954Z" transform="translate(-2.571 -1.928)" fill="#ef2d68"/>
</svg>
